# xmcd
#
# Track frame offsets: 
#        150
#        15860
#        29345
#        45825
#        59685
#        74770
#        83480
#        97697
#        120217
#        132017
#        145827
#        161932
#        180727
#        192235
#        217087
#        230262
#        240610
#        257935
#        275137
#        288942
#        302680
#        316447
#        328992
#
# Disc length: 4591 seconds
#
# Revision: 0
# Processed by: cddbd v1.5.2PL0 Copyright (c) Steve Scherf et al.
# Submitted via: ExactAudioCopy v0.99pb4
#
DISCID=4911ed17
DTITLE=Clara Ward - The Very Greatest
DYEAR=1900
DGENRE=Gospel
TTITLE0=Never A Man Spoke Like This Man
TTITLE1=We Need Thee
TTITLE2=Beams Of Heaven
TTITLE3=We'll Soon Be Done With Trouble And Trials
TTITLE4=That's What I've Been Looking For
TTITLE5=Meeting Tonights - Come In My Room
TTITLE6=I'm A Soldier In The Army Of The Lord
TTITLE7=It Is Well With My Soul
TTITLE8=When We All Get To Heaven
TTITLE9=Set Me Free
TTITLE10=Thank You Jesus For Coming Into My Life
TTITLE11=I Love The Name Jesus
TTITLE12=What Could I Do, What Could I Say
TTITLE13=What Jesus Is To Me
TTITLE14=All By Myself
TTITLE15=Run On
TTITLE16=For The Rest Of My Life
TTITLE17=I'm Going There
TTITLE18=You're Gonna Miss Your Chance
TTITLE19=In The Morning
TTITLE20=The Last Mile Of The Way
TTITLE21=It May Be The Best For Me
TTITLE22=From Youth To Old Age
EXTD=
EXTT0=
EXTT1=
EXTT2=
EXTT3=
EXTT4=
EXTT5=
EXTT6=
EXTT7=
EXTT8=
EXTT9=
EXTT10=
EXTT11=
EXTT12=
EXTT13=
EXTT14=
EXTT15=
EXTT16=
EXTT17=
EXTT18=
EXTT19=
EXTT20=
EXTT21=
EXTT22=
PLAYORDER=
